# xmcd
#
# Track frame offsets: 
#        150
#        14600
#        24918
#        38168
#        47566
#        60633
#        72294
#        85380
#        98555
#        108857
#        121056
#        131181
#        142129
#        151698
#        164793
#        176059
#        188754
#        199428
#        213983
#        229427
#        241953
#        254403
#
# Disc length: 3538 seconds
#
# Revision: 0
# Processed by: cddbd v1.5.2PL0 Copyright (c) Steve Scherf et al.
# Submitted via: ExactAudioCopyFreeDBPlugin 1.0
#
DISCID=3c0dd016
DTITLE=Curly Putman - Lonesome Country and World Of Country Music
DYEAR=2013
DGENRE=Country
TTITLE0=I'm Not The Boy I Used To Be
TTITLE1=Hummin' A Heartache
TTITLE2=Green, Green Grass Of Home
TTITLE3=Hurtin' Like A Heartache
TTITLE4=My Elusive Dreams
TTITLE5=Right Straight In The Eye
TTITLE6=Jailbirds Can't Fly
TTITLE7=Untouchable You
TTITLE8=Set Me Free
TTITLE9=What I'd Give To Be The Wind
TTITLE10=San Francisco Sun
TTITLE11=Just For You
TTITLE12=You Can Always Come Back
TTITLE13=Talking To The Grass
TTITLE14=Take It All Off
TTITLE15=If I Ever Get That Close Again
TTITLE16=Happy Shoes
TTITLE17=Who Loves Who
TTITLE18=Love Of The Common People
TTITLE19=D-I-V-O-R-C-E
TTITLE20=Big Silver Wings
TTITLE21=Little Bitty Soldier Boys
EXTD=
EXTT0=
EXTT1=
EXTT2=
EXTT3=
EXTT4=
EXTT5=
EXTT6=
EXTT7=
EXTT8=
EXTT9=
EXTT10=
EXTT11=
EXTT12=
EXTT13=
EXTT14=
EXTT15=
EXTT16=
EXTT17=
EXTT18=
EXTT19=
EXTT20=
EXTT21=
PLAYORDER=
